<svg width="4172" height="511" viewBox="0 0 4172 511" fill="none" xmlns="http://www.w3.org/2000/svg">
<path d="M240.7 1C240.5 1 240.2 1 240 1C235.4 1 230.8 2 226.6 3.9L38.3005 83.8C16.3005 93.1 -0.0995452 114.8 0.000454848 141C0.500455 240.2 41.3005 421.7 213.6 504.2C221.9 508.2 231 510.2 240 510.2V1H240.7Z" fill="#1C7B44"/>
<path d="M240.7 1C240.9 1 241.2 1 241.4 1C246 1 250.6 2 254.8 3.9L443.1 83.8C465.1 93.1 481.5 114.8 481.4 141C480.9 240.2 440.1 421.7 267.8 504.2C259.5 508.2 250.4 510.2 241.4 510.2V1H240.7Z" fill="#26A95D"/>
<path fill-rule="evenodd" clip-rule="evenodd" d="M2931.05 503.519H2822.27V41.1513H2985.76L3080.54 369.471H3083.08L3175.96 41.1513H3339.44V503.519H3226.85V300.828C3226.85 286.15 3227.06 270.5 3227.48 253.879C3227.91 237.258 3228.54 221.5 3229.39 206.606C3230.04 195.205 3230.57 185.636 3230.96 177.899C3231.08 175.704 3231.19 173.509 3231.3 171.314H3228.76L3137.16 503.519H3020.11L2927.23 170.666H2924.69C2925.54 179.3 2926.39 190.957 2927.23 205.635C2928.08 220.313 2928.93 236.179 2929.78 253.232C2930.63 270.284 2931.05 286.797 2931.05 302.771V503.519ZM1918.34 503.519H1796.21V11.3629H1918.34V204.987C1918.34 219.666 1917.71 235.855 1916.43 253.555C1915.16 271.256 1913.47 287.445 1911.35 302.123H1913.89C1915.46 299.718 1917.03 297.307 1918.58 294.89C1920.17 292.425 1921.83 289.826 1923.57 287.093C1924.16 286.168 1924.75 285.242 1925.34 284.315C1929.58 277.624 1934.03 270.824 1938.7 263.917C1940.36 261.458 1942.05 259.021 1943.77 256.605C1945.47 254.222 1947.1 252.003 1948.67 249.948C1949.57 248.765 1950.49 247.593 1951.42 246.432L2030.3 145.411H2165.8L2043.66 297.59L2173.43 503.519H2034.75L1957.78 375.299L1918.34 405.735V503.519ZM3948.21 503.519H3826.71V145.411H3918.31L3934.85 192.683H3939.31C3946.94 181.459 3955.95 171.853 3966.34 163.866C3975.68 156.743 3986.03 151.098 3997.02 147.12C3998.66 146.517 4000.31 145.947 4001.97 145.411C4010.26 142.769 4018.8 140.958 4027.44 140.003C4033.87 139.278 4040.34 138.921 4046.81 138.935C4060.16 138.828 4073.48 140.422 4086.44 143.682C4104.77 148.256 4121.73 157.294 4135.87 170.018C4147.27 180.583 4155.89 193.885 4160.95 208.711C4164.62 218.878 4167.2 230.256 4168.69 242.844C4169.74 251.988 4170.25 261.187 4170.22 270.392V503.519H4048.72V307.952C4048.74 301.725 4048.47 295.502 4047.91 289.301C4046.69 276.255 4044.1 265.577 4040.13 257.266C4039.63 256.227 4039.1 255.206 4038.54 254.203C4031.76 242.115 4020.94 236.071 4006.1 236.071C4000.1 236 3994.13 236.78 3988.35 238.389C3981.93 240.169 3976.01 243.468 3971.08 248.017C3966.15 252.565 3962.35 258.235 3959.98 264.564C3952.87 281.768 3948.98 305.873 3948.31 336.879C3948.24 340.187 3948.21 343.497 3948.21 346.806V503.519ZM924.083 67.0542L886.551 165.485C870.012 157.283 853.261 150.483 836.298 145.087C819.334 139.69 801.311 136.992 782.227 136.992C772.615 136.905 763.058 138.481 753.964 141.655C746.265 144.408 739.054 148.41 732.61 153.505C723.601 160.689 716.004 169.538 710.218 179.59C706.355 186.227 703.097 193.212 700.485 200.454C696.962 210.265 694.349 220.389 692.68 230.696C690.462 243.932 689.353 258.46 689.353 274.278C689.322 284.508 689.829 294.733 690.874 304.908C692.561 320.86 695.659 335.042 700.167 347.454C707.377 367.312 718.403 382.315 733.246 392.46C742.103 398.414 751.979 402.623 762.361 404.867C770.062 406.616 778.379 407.548 787.31 407.665C787.948 407.673 788.586 407.678 789.225 407.678C809.156 407.678 828.558 404.872 847.43 399.259C866.302 393.647 885.279 386.74 904.363 378.537V484.091C884.431 493.158 863.969 499.741 842.977 503.842C827.325 506.858 811.485 508.752 795.573 509.509C789.009 509.835 782.438 509.997 775.866 509.994C758.754 510.089 741.665 508.718 724.779 505.895C706.365 502.709 689.618 497.667 674.538 490.768C667.802 487.696 661.275 484.167 655.003 480.206C623.621 460.347 600.508 432.609 585.665 396.993C570.822 361.376 563.401 320.255 563.401 273.63C563.401 227.005 571.883 185.776 588.846 149.944C605.809 114.111 630.724 85.9418 663.59 65.4353C683.93 52.9365 706.3 44.2388 729.645 39.7525C747.391 36.2754 765.428 34.575 783.5 34.6755C799.228 34.7193 814.932 35.9465 830.484 38.3473C837.973 39.4867 845.428 40.8537 852.837 42.4464C877.01 47.627 900.758 55.8296 924.083 67.0542ZM3563.99 277.516L3622.52 275.573V270.392C3622.54 266.356 3622.25 262.325 3621.66 258.334C3621.02 254.216 3620.02 250.533 3618.66 247.287C3616.99 243.106 3614.39 239.378 3611.07 236.395C3606.59 232.541 3601.31 229.773 3595.63 228.3C3591.8 227.247 3587.62 226.623 3583.09 226.429C3582.03 226.382 3580.96 226.358 3579.9 226.357C3572.5 226.391 3565.11 227.012 3557.81 228.216C3550.07 229.459 3541.95 231.322 3533.46 233.804C3518.44 238.232 3503.68 243.545 3489.26 249.715C3486.81 250.758 3484.37 251.822 3481.93 252.908L3446.95 171.314C3460.86 164.003 3475.43 158.055 3490.45 153.551C3498.86 151.003 3507.37 148.827 3515.97 147.03C3530.33 144.056 3544.85 141.948 3559.46 140.716C3573.66 139.502 3587.91 138.908 3602.16 138.935C3636.06 138.935 3664.31 145.441 3686.91 158.453C3693.9 162.467 3700.46 167.211 3706.49 172.609C3731.51 195.058 3744.02 227.005 3744.02 268.45V503.519H3660.05L3636.51 456.246H3633.97C3624.21 468.766 3614.14 479.019 3603.75 487.006C3594.43 494.116 3583.96 499.532 3572.82 503.014C3571.16 503.544 3569.49 504.036 3567.81 504.49C3561.89 506.064 3555.87 507.256 3549.8 508.058C3543.87 508.866 3537.53 509.42 3530.78 509.722C3526.59 509.907 3522.39 509.998 3518.19 509.994C3505.28 510.119 3492.44 508.178 3480.12 504.244C3465.89 499.586 3452.84 491.825 3441.86 481.501C3430.89 471.061 3422.76 457.914 3418.26 443.333C3413.64 429.22 3411.32 412.802 3411.32 394.079C3411.21 382.391 3412.63 370.74 3415.54 359.434C3420.79 338.678 3433.17 320.527 3450.45 308.275C3461.5 300.5 3473.61 294.403 3486.39 290.176C3497.81 286.251 3510.47 283.221 3524.35 281.084C3537.49 279.118 3550.72 277.927 3563.99 277.516ZM2746.58 302.771V357.815H2529.66C2529.97 366.856 2532.05 375.742 2535.79 383.951C2539.32 391.465 2544.26 398.205 2550.33 403.792C2557.12 410.002 2565.16 414.62 2573.89 417.32C2580.22 419.384 2587.23 420.755 2594.9 421.432C2598.8 421.768 2602.72 421.932 2606.63 421.924C2618.14 421.955 2629.65 421.309 2641.09 419.988C2649.83 418.974 2658.5 417.458 2667.06 415.449C2678.95 412.595 2690.63 408.877 2702 404.323C2709.34 401.399 2716.57 398.197 2723.68 394.726V483.444C2708.41 491.539 2692.23 497.7 2675.49 501.79C2673.01 502.407 2670.51 502.983 2668.01 503.519C2653.38 506.657 2636 508.656 2615.88 509.515C2607.92 509.844 2599.96 510.004 2592 509.994C2556.37 509.994 2524.67 503.627 2496.9 490.891C2469.12 478.155 2447.17 458.189 2431.06 430.99C2416.99 407.246 2409.06 377.743 2407.27 342.48C2407.01 337.235 2406.88 331.983 2406.89 326.731C2406.82 312.171 2407.77 297.625 2409.72 283.201C2411.88 267.776 2415.27 253.659 2419.89 240.85C2422.39 233.869 2425.38 227.078 2428.83 220.529C2437.81 203.187 2450.09 187.842 2464.96 175.393C2472.67 169.034 2481.03 163.541 2489.9 159.01C2507.27 150.226 2525.91 144.325 2545.12 141.532C2556.85 139.768 2568.69 138.9 2580.55 138.935C2594.61 138.868 2608.66 140.01 2622.54 142.348C2638.58 145.128 2653.28 149.616 2666.63 155.811C2667.52 156.221 2668.41 156.64 2669.29 157.067C2694.1 169.155 2713.18 187.287 2726.54 211.463C2738.2 232.57 2744.77 258.449 2746.25 289.101C2746.47 293.654 2746.58 298.212 2746.58 302.771ZM1145.45 509.994C1111.53 509.994 1081.42 502.763 1055.12 488.301C1028.83 473.838 1008.16 452.684 993.102 424.839C978.467 397.77 970.944 365.089 970.532 326.796C970.522 325.695 970.518 324.594 970.52 323.493C970.39 305.422 972.087 287.385 975.583 269.667C980.125 247.524 987.716 228.024 998.356 211.165C1003.89 202.384 1010.34 194.233 1017.59 186.855C1038.52 165.817 1064.88 151.255 1093.62 144.86C1111.25 140.778 1129.28 138.789 1147.36 138.935C1163.98 138.834 1180.54 140.742 1196.71 144.621C1210.87 148.055 1224.54 153.326 1237.37 160.305C1263.45 174.551 1284.02 195.382 1299.08 222.796C1307.34 238.096 1313.28 254.582 1316.7 271.694C1319.59 285.621 1321.22 300.582 1321.58 316.577C1321.63 318.882 1321.66 321.188 1321.66 323.493C1321.73 338.722 1320.55 353.93 1318.14 368.959C1315.25 386.444 1310.57 402.437 1304.12 416.938C1302.93 419.605 1301.67 422.24 1300.35 424.839C1286.14 452.684 1265.89 473.838 1239.6 488.301C1223.49 497.024 1206.12 503.092 1188.14 506.277C1174.05 508.821 1159.76 510.065 1145.45 509.994ZM1550.66 509.994C1516.74 509.994 1486.63 502.763 1460.33 488.301C1434.04 473.838 1413.37 452.684 1398.31 424.839C1383.68 397.77 1376.15 365.089 1375.74 326.796C1375.73 325.695 1375.73 324.594 1375.73 323.493C1375.6 305.422 1377.3 287.385 1380.79 269.667C1385.34 247.524 1392.93 228.024 1403.57 211.165C1409.1 202.384 1415.55 194.233 1422.8 186.855C1443.73 165.817 1470.09 151.255 1498.83 144.86C1516.46 140.778 1534.49 138.789 1552.57 138.935C1569.19 138.834 1585.75 140.742 1601.92 144.621C1616.08 148.055 1629.75 153.326 1642.58 160.305C1668.66 174.551 1689.23 195.382 1704.29 222.796C1712.55 238.096 1718.49 254.582 1721.91 271.694C1724.8 285.621 1726.43 300.582 1726.79 316.577C1726.85 318.882 1726.87 321.188 1726.87 323.493C1726.94 338.722 1725.76 353.93 1723.35 368.959C1720.46 386.444 1715.78 402.437 1709.33 416.938C1708.14 419.605 1706.88 422.24 1705.56 424.839C1691.35 452.684 1671.1 473.838 1644.81 488.301C1628.7 497.024 1611.33 503.092 1593.35 506.277C1579.26 508.821 1564.97 510.065 1550.66 509.994ZM2337.55 503.519H2216.05V145.411H2337.55V503.519ZM1176.01 408.222C1176.32 407.938 1176.64 407.649 1176.94 407.354C1182.96 401.578 1187.66 393.455 1191.03 382.986C1191.84 380.453 1192.55 377.889 1193.16 375.299C1194.62 369.083 1195.72 362.787 1196.46 356.442C1197.2 350.242 1197.72 343.629 1198 336.6C1198.17 332.233 1198.25 327.864 1198.25 323.493C1198.27 316.333 1198.03 309.175 1197.53 302.033C1197.04 295.069 1196.28 288.596 1195.27 282.612C1194.7 279.161 1193.99 275.733 1193.16 272.335C1192.09 267.884 1190.67 263.529 1188.91 259.312C1185.73 251.805 1181.63 245.784 1176.62 241.251C1169.08 234.426 1159.05 230.972 1146.53 230.89C1146.39 230.89 1146.24 230.89 1146.09 230.89C1128.61 230.89 1115.71 238.031 1107.39 252.312C1107.02 252.935 1106.67 253.566 1106.33 254.203C1103.34 259.985 1101.01 266.1 1099.4 272.426C1096.26 284.19 1094.48 298.417 1094.04 315.107C1093.96 317.902 1093.93 320.698 1093.93 323.493C1093.93 339.031 1094.92 352.794 1096.91 364.783C1097.49 368.312 1098.19 371.82 1099.02 375.299C1100.08 379.888 1101.52 384.38 1103.3 388.73C1105.31 393.552 1107.7 397.781 1110.46 401.416C1112.08 403.561 1113.89 405.549 1115.87 407.354C1121.29 412.216 1127.89 415.51 1134.99 416.893C1138.85 417.68 1142.79 418.064 1146.73 418.039C1158.92 418.039 1168.68 414.767 1176.01 408.222ZM1581.22 408.222C1581.53 407.938 1581.85 407.649 1582.15 407.354C1588.17 401.578 1592.87 393.455 1596.24 382.986C1597.05 380.453 1597.76 377.889 1598.37 375.299C1599.83 369.083 1600.93 362.787 1601.67 356.442C1602.41 350.242 1602.93 343.629 1603.21 336.6C1603.38 332.233 1603.46 327.864 1603.46 323.493C1603.48 316.333 1603.24 309.175 1602.74 302.033C1602.25 295.069 1601.49 288.596 1600.49 282.612C1599.91 279.161 1599.2 275.733 1598.37 272.335C1597.31 267.884 1595.88 263.529 1594.12 259.312C1590.94 251.805 1586.84 245.784 1581.83 241.251C1574.29 234.426 1564.26 230.972 1551.75 230.89C1551.6 230.89 1551.45 230.89 1551.3 230.89C1533.82 230.89 1520.92 238.031 1512.6 252.312C1512.23 252.935 1511.88 253.566 1511.54 254.203C1508.55 259.985 1506.22 266.1 1504.61 272.426C1501.47 284.19 1499.69 298.417 1499.25 315.107C1499.17 317.902 1499.14 320.698 1499.14 323.493C1499.14 339.031 1500.13 352.794 1502.12 364.783C1502.7 368.312 1503.4 371.82 1504.23 375.299C1505.29 379.888 1506.73 384.38 1508.51 388.73C1510.52 393.552 1512.91 397.781 1515.67 401.416C1517.29 403.561 1519.1 405.549 1521.08 407.354C1526.5 412.216 1533.1 415.51 1540.2 416.893C1544.06 417.68 1548 418.064 1551.94 418.039C1564.13 418.039 1573.89 414.767 1581.22 408.222ZM2277.12 110.442C2259.31 110.442 2244.14 106.664 2231.63 99.1091C2224.5 94.742 2219.12 87.9374 2216.46 79.9085C2214.89 75.5439 2213.83 70.618 2213.29 65.1309C2213 62.1114 2212.86 59.0792 2212.87 56.0455C2212.87 34.028 2219.12 19.3496 2231.63 12.0105C2239.2 7.64268 2247.43 4.58552 2255.98 2.96387C2262.95 1.61932 2270.03 0.962232 2277.12 1.00172C2284.84 0.957358 2292.55 1.76945 2300.1 3.42365C2307.97 5.15212 2315.55 8.04511 2322.6 12.0105C2329.93 16.2414 2335.49 23.0606 2338.22 31.1786C2339.79 35.4656 2340.88 40.3116 2341.47 45.7167C2341.83 49.1469 2342.01 52.5951 2342 56.0455C2342.04 61.2182 2341.58 66.3826 2340.63 71.4642C2338.11 84.3466 2332.1 93.5615 2322.6 99.1091C2313.6 104.293 2303.74 107.723 2293.51 109.224C2288.08 110.052 2282.6 110.459 2277.12 110.442ZM3623.15 371.414V343.568L3595.16 344.863C3573.11 345.727 3557.53 349.72 3548.41 356.843C3544.51 359.845 3541.28 363.666 3538.96 368.047C3536.64 372.428 3535.27 377.267 3534.94 382.235C3534.8 383.804 3534.73 385.379 3534.73 386.955C3534.71 390.288 3534.99 393.616 3535.57 396.896C3536.27 400.66 3537.39 404.002 3538.95 406.92C3540.32 409.517 3542.12 411.854 3544.27 413.83C3548.46 417.611 3553.53 420.225 3559 421.419C3562.52 422.213 3566.11 422.6 3569.72 422.572C3576.92 422.648 3584.08 421.375 3590.83 418.816C3597 416.404 3602.67 412.847 3607.57 408.325C3612.33 404.041 3616.17 398.799 3618.84 392.928C3621.51 387.057 3622.96 380.686 3623.09 374.218C3623.13 373.284 3623.15 372.349 3623.15 371.414ZM2532.2 280.106H2636.53C2636.53 264.132 2632.07 250.641 2623.17 239.633C2614.26 228.624 2601.54 223.119 2585 223.119C2578.96 223.062 2572.95 223.973 2567.19 225.82C2560.43 228.039 2554.23 231.762 2549.06 236.718C2544.69 240.97 2541.19 246.07 2538.79 251.716C2536.8 256.202 2535.23 261.257 2534.07 266.882C2533.19 271.248 2532.57 275.664 2532.2 280.106Z" fill="#1C7B44" stroke="#26A95D" stroke-width="2" stroke-linecap="round"/>
</svg>
