<svg width="512" height="512" viewBox="0 0 512 512" fill="none" xmlns="http://www.w3.org/2000/svg">
<path d="M256 0C256.2 0 256.5 0 256.7 0C261.3 0 265.9 1 270.1 2.9L458.4 82.8C480.4 92.1 496.8 113.8 496.7 140C496.2 239.2 455.4 420.7 283.1 503.2C274.8 507.2 265.7 509.2 256.7 509.2V0H256Z" fill="#26A95D"/>
<path d="M256.7 0C256.5 0 256.2 0 256 0C251.4 0 246.8 1 242.6 2.9L54.3 82.8C32.3 92.1 15.9 113.8 16 140C16.5 239.2 57.3 420.7 229.6 503.2C237.9 507.2 247 509.2 256 509.2V0H256.7Z" fill="#1C7B44"/>
</svg>
